<svg xmlns="http://www.w3.org/2000/svg" viewBox="0 0 64 64">
  <defs>
    <linearGradient id="g" x1="8" y1="8" x2="56" y2="56" gradientUnits="userSpaceOnUse">
      <stop stop-color="#1fbf75"/>
      <stop offset=".55" stop-color="#0fa3b1"/>
      <stop offset="1" stop-color="#ff5a5f"/>
    </linearGradient>
  </defs>
  <rect width="64" height="64" rx="14" fill="url(#g)"/>
  <path d="M18 35c0-10 6-17 15-17 5 0 9 2 12 6l-5 5c-2-3-4-4-7-4-5 0-8 4-8 10s3 10 8 10c3 0 6-1 8-4l5 5c-3 4-7 6-13 6-9 0-15-7-15-17Z" fill="#fff"/>
  <path d="M35 18h7l8 19V18h7v28h-7l-8-19v19h-7V18Z" fill="#fff" opacity=".92"/>
</svg>
